<svg xmlns="http://www.w3.org/2000/svg" width="483" height="151.574" viewBox="0 0 483 151.574">
  <path id="sound-wave" d="M483,1.6A244.289,244.289,0,0,1,405.076-.639a197.441,197.441,0,0,1-32.844-9.166c-9.4-3.709-17.388-8.817-28.594-10.986-10.562-2.029-20.994-.63-30.783,1.889C294.694-14.214,276.92-8.476,256.7-13.094c-18.29-4.128-30.139-14.065-42.762-21.9-11.077-6.857-24.858-13.225-42.375-13.715-32.844-.98-50.876,16.584-71.484,27.5C76.894-8.966,44.694,1.18,11.463-3.368A39.959,39.959,0,0,1,0-6.307V102.824H483V1.6Z" transform="translate(0 48.75)" fill="#fff"/>
</svg>
